<?xml version="1.0" standalone="no"?><!DOCTYPE svg PUBLIC "-//W3C//DTD SVG 1.1//EN" "http://www.w3.org/Graphics/SVG/1.1/DTD/svg11.dtd"><svg t="1501494962405" class="icon" style="" viewBox="0 0 1024 1024" version="1.1" xmlns="http://www.w3.org/2000/svg" p-id="487" xmlns:xlink="http://www.w3.org/1999/xlink" width="200" height="200"><defs><style type="text/css"></style></defs><path d="M449.22267 678.435436a32.124587 32.124587 0 0 1-22.653593-9.343007L283.48028 525.875646a31.9966 31.9966 0 0 1 45.243193-45.243193l143.088797 143.15279a31.9966 31.9966 0 0 1-22.5896 54.650193z" fill="#0bb279" p-id="488"></path><path d="M449.22267 678.435436a31.9966 31.9966 0 0 1-22.653593-54.5862l268.771443-268.771443a31.9966 31.9966 0 0 1 45.243193 45.243193l-268.771443 268.771443a32.124587 32.124587 0 0 1-22.5896 9.343007z" fill="#0bb279" p-id="489"></path><path d="M511.936007 1023.99872a32.060594 32.060594 0 0 1-5.951368-63.481255c176.813214-33.59643 376.024047-252.453177 390.166545-385.239068L895.959204 215.124663C687.085397 187.287621 502.273033 64.356682 494.145897 58.91726a31.9966 31.9966 0 0 1 35.644213-53.114357c1.983789 1.343857 197.163051 130.866095 400.981396 148.784192a31.9966 31.9966 0 0 1 29.180899 31.868614v392.214327c-18.622021 177.13318-249.829456 408.084641-441.937044 444.688752a33.276464 33.276464 0 0 1-6.079354 0.639932z" fill="#0bb279" p-id="490"></path><path d="M512.063993 1023.742747a33.916396 33.916396 0 0 1-6.079354-0.639932c-192.107589-36.476124-423.315023-267.619565-441.809058-441.425098L64.047595 186.199736c0-16.638232 12.670654-30.460764 29.180899-31.868614C297.494791 136.349033 492.162108 6.826795 494.145897 5.482937a32.060594 32.060594 0 0 1 35.708206 53.17835C521.726967 64.100709 336.914603 186.967655 128.040796 214.804697v363.48138c13.950518 129.458245 213.161352 348.314992 389.974565 381.975415a32.060594 32.060594 0 0 1-5.951368 63.481255z" fill="#0bb279" p-id="491"></path></svg>