<?xml version="1.0" standalone="no"?><!DOCTYPE svg PUBLIC "-//W3C//DTD SVG 1.1//EN" "http://www.w3.org/Graphics/SVG/1.1/DTD/svg11.dtd"><svg t="1508884372981" class="icon" style="" viewBox="0 0 1025 1024" version="1.1" xmlns="http://www.w3.org/2000/svg" p-id="1422" xmlns:xlink="http://www.w3.org/1999/xlink" width="200.1953125" height="200"><defs><style type="text/css"></style></defs><path d="M511.77696 1023.999984C228.918988 1023.998984 0.05501 795.055006 1.0e-05 512.012034-0.05599 227.261062 233.823987-5.447915 522.089959 0.097084c281.840972 5.422999 503.736951 238.605977 501.898951 516.51195C1022.14291 795.667006 793.113933 1024.000984 511.77696 1023.999984zM512.32696 566.709029c-72.011993-69.907993-143.438986-138.125987-213.397979-207.81598-22.403998-22.317998-47.558995-27.456997-72.523993 0.108-21.059998 23.254998-22.274998 41.267996 0.041 63.382994 22.568998 22.364998 45.795996 44.063996 68.489993 66.301994 61.365994 60.134994 122.601988 120.400988 183.886982 180.619982 20.485998 20.129998 45.729996 20.176998 66.164994 0.351 25.188998-24.437998 50.708995-48.535995 75.772993-73.101993 58.323994-57.161994 116.486989-114.490989 174.663983-171.804983 26.261997-25.873997 24.356998-52.727995-5.181999-75.232993-17.737998-13.513999-40.770996-13.360999-55.644995 0.782-24.080998 22.898998-48.094995 45.873996-71.875993 69.084993C612.77195 468.134038 562.990955 517.058034 512.32696 566.709029z" p-id="1423" fill="#1296db"></path></svg>