<svg xmlns="http://www.w3.org/2000/svg" viewBox="615 52.443 158.586 160">
  <defs>
    <style>
      .cls-1 {
        opacity: 0.05;
      }

      .cls-2 {
        fill: none;
      }

      .cls-3 {
        fill-rule: evenodd;
      }
    </style>
  </defs>
  <g id="Group_43" data-name="Group 43" class="cls-1" transform="translate(392 -434.852)">
    <g id="Group_42" data-name="Group 42" transform="translate(223 487.295)">
      <rect id="Rectangle_50" data-name="Rectangle 50" class="cls-2" width="158.586" height="160"/>
      <g id="Group_41" data-name="Group 41" transform="translate(6.579 9.667)">
        <ellipse id="XMLID_8_" cx="9.251" cy="9.333" rx="9.251" ry="9.333" transform="translate(47.605 70.333)"/>
        <path id="XMLID_7_" class="cls-3" d="M89.766,86.567c0-23.333-18.171-36.333-32.708-39-16.189-3-24.118-9.333-32.708-17.333C17.742,23.9,10.8,12.567,7.5,1.9A39.335,39.335,0,0,0,37.235,15.567c15.528,0,23.458-4.667,32.378-5.667,17.18-1.333,35.021,7.667,45.593,18.333S134.369,55.9,134.369,73.567c0,35.333-28.413,64.333-63.434,64.333a63.485,63.485,0,0,1-51.54-26.333A37.919,37.919,0,0,0,41.86,125.233a35.708,35.708,0,0,0,8.59,1A39.586,39.586,0,0,0,89.766,86.567Z" transform="translate(10.7 -1.9)"/>
        <path id="XMLID_6_" class="cls-3" d="M63.142,106.867C25.478,110.867,1.029,85.2,2.02,71.2c.991-13.333,19.162-21,22.466-31.667C27.13,31.2,32.746,18.2,43.649,18.2a13.594,13.594,0,0,1,7.6,2c-19.493,7.333-12.224,23-17.841,30.333-6.608,9-17.18,10.333-16.85,23C16.888,85.2,42.658,105.533,63.142,106.867Z" transform="translate(-1.991 36.133)"/>
      </g>
    </g>
  </g>
</svg>
