<svg xmlns="http://www.w3.org/2000/svg" viewBox="654 493 104 27">
  <defs>
    <style>
      .cls-1 {
        fill: none;
      }

      .cls-2, .cls-3, .cls-4 {
        fill: #00af73;
      }

      .cls-3 {
        fill-rule: evenodd;
      }

      .cls-4 {
        font-size: 18px;
        font-family: NotoSansCJKsc-DemiLight, Noto Sans CJK SC DemiLight;
        font-weight: 300;
      }
    </style>
  </defs>
  <g id="Group_49" data-name="Group 49" transform="translate(614 31)">
    <g id="Group_48" data-name="Group 48" transform="translate(-32 400)">
      <rect id="Rectangle_52" data-name="Rectangle 52" class="cls-1" width="24" height="24" transform="translate(72 63.121)"/>
      <g id="Group_47" data-name="Group 47" transform="translate(72.996 64.571)">
        <ellipse id="XMLID_8_" class="cls-2" cx="1.4" cy="1.4" rx="1.4" ry="1.4" transform="translate(7.204 10.55)"/>
        <path id="XMLID_7_" class="cls-3" d="M19.95,14.6A5.972,5.972,0,0,0,15,8.75a8.851,8.851,0,0,1-4.95-2.6A10.851,10.851,0,0,1,7.5,1.9,5.975,5.975,0,0,0,12,3.95c2.35,0,3.55-.7,4.9-.85a9.382,9.382,0,0,1,6.9,2.75,10.014,10.014,0,0,1,2.9,6.8,9.626,9.626,0,0,1-17.4,5.7,5.747,5.747,0,0,0,3.4,2.05,5.45,5.45,0,0,0,1.3.15A5.964,5.964,0,0,0,19.95,14.6Z" transform="translate(-4.746 -1.9)"/>
        <path id="XMLID_6_" class="cls-3" d="M11.246,31.5c-5.7.6-9.4-3.25-9.25-5.35.15-2,2.9-3.15,3.4-4.75.4-1.25,1.25-3.2,2.9-3.2a2.071,2.071,0,0,1,1.15.3c-2.95,1.1-1.85,3.45-2.7,4.55-1,1.35-2.6,1.55-2.55,3.45C4.246,28.25,8.146,31.3,11.246,31.5Z" transform="translate(-1.991 -10.05)"/>
      </g>
    </g>
    <text id="猴阿家教" class="cls-4" transform="translate(72 483)"><tspan x="0" y="0">猴阿家教</tspan></text>
  </g>
</svg>
