<?xml version="1.0" standalone="no"?><!DOCTYPE svg PUBLIC "-//W3C//DTD SVG 1.1//EN" "http://www.w3.org/Graphics/SVG/1.1/DTD/svg11.dtd"><svg t="1503175829786" class="icon" style="" viewBox="0 0 1024 1024" version="1.1" xmlns="http://www.w3.org/2000/svg" p-id="6809" xmlns:xlink="http://www.w3.org/1999/xlink" width="200" height="200"><defs><style type="text/css"></style></defs><path d="M512 582.2c121.1 0 215.7-106.1 230.1-258.1 8.4-87.9-11.5-157.8-57.6-202.3C644.8 83.5 586.7 64 512 64s-132.8 19.5-172.5 57.9c-46.1 44.4-66 114.4-57.6 202.3 14.4 151.9 109.1 258 230.1 258z m200.8 52.5c-9.6-3.9-20-4.7-27-4.7-12.1 0-23.7 2.4-32.5 6.7-0.8 0.4-82 39.6-141.3 39.6-59.2 0-140.5-39.2-141.3-39.6-16.1-7.8-42.6-8.8-59.5-1.9C285.9 644.9 64 736.8 64 810.5 64 920.7 295.5 960 512 960c216.6 0 448-39.3 448-149.5 0-73.7-221.9-165.6-247.2-175.8z" fill="#1296db" p-id="6810"></path></svg>