<?xml version="1.0" standalone="no"?><!DOCTYPE svg PUBLIC "-//W3C//DTD SVG 1.1//EN" "http://www.w3.org/Graphics/SVG/1.1/DTD/svg11.dtd"><svg t="1501496972883" class="icon" style="" viewBox="0 0 1024 1024" version="1.1" xmlns="http://www.w3.org/2000/svg" p-id="4839" xmlns:xlink="http://www.w3.org/1999/xlink" width="200" height="200"><defs><style type="text/css"></style></defs><path d="M244.463849 395.964636l23.995194 32.00824c19.995994 144.000458 120.005265 251.964178 240.010529 251.964179 124.004463 0 224.013734-112.006867 240.010529-256.007325L768.520042 403.977683c-23.995193-27.994392-11.997597-60.061229 7.998398-108.007668 15.996796-40.006638 31.993591-79.998627 15.996796-116.006065-15.996796-52.004234-56.003433-100.00927-104.008469-128.003663-52.004234-32.00824-168.0103-75.999428-260.006524-36.007439-11.997597 3.999199-19.995994 11.997597-32.00824 23.995194-15.996796 15.996796-36.007439 32.00824-72.000229 40.006637-56.003433 7.998398-91.996223 48.005036-104.008469 83.997826-11.997597 40.006638 3.999199 79.998627 19.995995 120.005264 23.995193 52.004234 36.007439 87.997024 3.999198 112.006867z m264.020372 244.024377c-112.006867 0-204.00309-116.006066-204.00309-260.006523 0-19.995994 0-19.995994 19.995994-23.995193 15.996796-3.999199 43.94724-7.998398 60.061229-36.007439l36.007439-48.005036c7.998398 3.999199 27.994392 11.997597 64.001831 36.007439 19.995994 11.997597 40.006638 19.995994 56.003433 19.995994 28.009041 0 43.94724-15.996796 56.003434-28.009041 15.996796 19.995994 40.006638 28.009041 64.001831 36.007439 36.007439 15.996796 52.004234 23.995193 52.004234 43.94724 0 144.000458-91.996223 260.006523-204.00309 260.006524z m-248.008927-464.024262c3.999199-11.997597 19.995994-48.005036 72.000229-60.061229 48.005036-7.998398 72.000229-32.00824 91.996223-48.005036 7.998398-7.998398 15.996796-11.997597 19.995995-15.996795 72.000229-32.00824 172.009499 3.999199 224.013733 31.993591C708.458814 107.963721 740.496352 147.955709 756.493148 191.90295c7.998398 23.995193-3.999199 56.003433-15.996796 88.011673-3.999199 11.997597-11.997597 27.994392-15.996795 43.947241-15.996796-11.997597-36.007439-19.995994-52.004235-23.995194-23.995193-7.998398-43.94724-15.996796-52.004234-31.993591-7.998398-11.997597-15.996796-15.996796-23.995194-15.996795-11.997597 0-19.995994 7.998398-27.994392 19.995994s-15.996796 19.995994-32.00824 19.995995q-11.997597 0-36.007439-11.997597c-60.061229-40.006638-79.998627-43.94724-92.010872-43.94724H396.433407L384.479757 251.964178l-40.006637 52.004235c0 7.998398-7.998398 7.998398-23.995194 11.997597-7.998398 0-11.997597 3.999199-19.995994 7.998397-7.998398-19.995994-15.996796-36.007439-19.995995-56.003433-15.996796-32.00824-28.009041-64.001831-19.995994-92.010872zM932.501845 772.006523c-11.997597-27.994392-260.006523-112.006867-260.006523-112.006866 60.061229 184.007096-91.996223 340.019799-91.996223 340.019799l-36.022088-244.039026 16.026093-11.997597-15.996795-28.009041H496.486624l-15.996795 28.009041 15.996795 11.997597-23.995193 248.008927c-156.012703-100.00927-124.004463-344.018998-124.004464-344.018998C280.471288 663.984206 88.465795 772.006523 88.465795 772.006523 44.459958 839.992904 40.460759 1023.970702 40.460759 1023.970702h940.046122c15.996796-68.00103-36.007439-224.013734-48.005036-251.964179z" fill="rgb(17, 148, 217)" p-id="4840"></path></svg>