<?xml version="1.0" standalone="no"?><!DOCTYPE svg PUBLIC "-//W3C//DTD SVG 1.1//EN" "http://www.w3.org/Graphics/SVG/1.1/DTD/svg11.dtd"><svg t="1501496990621" class="icon" style="" viewBox="0 0 1024 1024" version="1.1" xmlns="http://www.w3.org/2000/svg" p-id="5507" xmlns:xlink="http://www.w3.org/1999/xlink" width="200" height="200"><defs><style type="text/css"></style></defs><path d="M831.570851 779.756253c-57.780984-25.556049-170.006975-54.44603-170.006975-54.44603s1.110287-34.446533 0.00921-69.261457c188.159404 2.963495 200.008266-19.262716 211.856106-25.187659-54.81749-87.411839-62.22418-260.751722-63.708997-278.530644-14.818497-130.378419-50.366108-185.189769-62.22418-204.452485C569.710888-75.838246 402.299017 61.949934 402.299017 61.949934c-115.924219-4.444219-146.307204 103.338576-150.751423 114.448612C231.547075 234.17953 218.213395 341.961302 214.87844 355.294982c-26.668383 208.898751-83.33601 274.455839-87.780229 283.346323 70.001307 25.557072 228.898247 16.667611 228.898247 16.667611s1.110287 44.445258 1.110287 71.111594c-85.557608 12.223393-208.896704 72.225975-221.119073 80.006172C47.093063 864.205621 63.761698 1000.877373 63.761698 1000.877373s856.700693 0 891.147226 0C979.355709 833.091996 841.569576 784.202519 831.570851 779.756253zM553.78108 674.199149c-4.445242 1.110287-43.891649 21.112853-88.892563 0-4.445242-1.111311-88.892563-35.000142-133.339868-168.341033-3.888564-2.221598-26.66736-7.222495-44.446281-26.66736-2.222621-2.778276-67.224054-65.002456 17.222243-98.893334 5.556553-2.778276 68.892043-30.556946 98.893334-141.67265 3.89061-4.444219 3.542686-6.294356 11.676947-9.257851 0 0 36.294624 104.44784 137.784086 115.559922 1.482771-11.111059-12.596899 0.74292-4.446265-71.113641 4.446265 2.960425 56.297191 90.376357 120.004141 97.782024 10.374278 2.221598 38.518269 17.036002 63.692624 17.777899 6.665817 0.74292 49.63649 22.223141 7.41283 80.004125-2.223644 4.257977-16.110933 24.25952-53.335742 35.924187C683.785993 509.193071 646.56323 635.863029 553.78108 674.199149z" fill="#ff88b2" p-id="5508"></path></svg>